PathFileType	4	(X/Y/Z)	RBDS028static.trc
DataRate	CameraRate	NumFrames	NumMarkers	Units	OrigDataRate	OrigDataStartFrame	OrigNumFrames
150.000000	150.000000	4	48	mm	150.000000	56	150
Frame#	Time	L.Ankle			L.Ankle.Medial			L.ASIS			L.GTR			L.Heel.Bottom			L.Heel.Lateral			L.Heel.Top			L.HF			L.Iliac.Crest			L.Knee			L.Knee.Medial			L.MT1			L.MT2			L.MT5			L.PSIS			L.Shank.Bottom.Lateral			L.Shank.Bottom.Medial			L.Shank.Top.Lateral			L.Shank.Top.Medial			L.Thigh.Bottom.Lateral			L.Thigh.Bottom.Medial			L.Thigh.Top.Lateral			L.Thigh.Top.Medial			L.TT			R.Ankle			R.Ankle.Medial			R.ASIS			R.GTR			R.Heel.Bottom			R.Heel.Lateral			R.Heel.Top			R.HF			R.Iliac.Crest			R.Knee			R.Knee.Medial			R.MT1			R.MT2			R.MT5			R.PSIS			R.Shank.Bottom.Lateral			R.Shank.Bottom.Medial			R.Shank.Top.Lateral			R.Shank.Top.Medial			R.Thigh.Bottom.Lateral			R.Thigh.Bottom.Medial			R.Thigh.Top.Lateral			R.Thigh.Top.Medial			R.TT			
		X1	Y1	Z1	X2	Y2	Z2	X3	Y3	Z3	X4	Y4	Z4	X5	Y5	Z5	X6	Y6	Z6	X7	Y7	Z7	X8	Y8	Z8	X9	Y9	Z9	X10	Y10	Z10	X11	Y11	Z11	X12	Y12	Z12	X13	Y13	Z13	X14	Y14	Z14	X15	Y15	Z15	X16	Y16	Z16	X17	Y17	Z17	X18	Y18	Z18	X19	Y19	Z19	X20	Y20	Z20	X21	Y21	Z21	X22	Y22	Z22	X23	Y23	Z23	X24	Y24	Z24	X25	Y25	Z25	X26	Y26	Z26	X27	Y27	Z27	X28	Y28	Z28	X29	Y29	Z29	X30	Y30	Z30	X31	Y31	Z31	X32	Y32	Z32	X33	Y33	Z33	X34	Y34	Z34	X35	Y35	Z35	X36	Y36	Z36	X37	Y37	Z37	X38	Y38	Z38	X39	Y39	Z39	X40	Y40	Z40	X41	Y41	Z41	X42	Y42	Z42	X43	Y43	Z43	X44	Y44	Z44	X45	Y45	Z45	X46	Y46	Z46	X47	Y47	Z47	X48	Y48	Z48	

57	0.3733333333333334	712.0431518554688	92.8538818359375	1051.606689453125	730.4130249023438	106.243522644043	1133.711669921875	835.0280151367188	893.541015625	1107.89111328125	788.5619506835938	805.5682373046875	1061.32373046875	638.22802734375	39.09976196289063	1087.627075195313	668.3735961914063	56.39731979370117	1044.8330078125	649.1312255859375	83.508056640625	1088.609497070313	743.9138793945313	412.9105834960938	1051.721801757813	771.2469482421875	944.3248291015625	1078.547485351563	748.76220703125	475.7601013183594	1059.115356445313	731.9733276367188	452.842529296875	1171.536987304688	855.9481811523438	53.5185546875	1132.011962890625	858.1456298828125	65.81360626220703	1084.619750976563	823.4288940429688	46.65261840820313	1021.411254882813	679.4217529296875	924.0887451171875	1177.751098632813	714.1819458007813	171.4198760986328	1043.926513671875	673.9539184570313	169.4826202392578	1075.355712890625	705.551025390625	251.0843505859375	1031.996337890625	667.135009765625	254.1836395263672	1068.53955078125	772.0560302734375	574.5569458007813	1040.016723632813	705.2098388671875	576.5154418945313	1068.643798828125	773.5474243164063	684.8604736328125	1040.062377929688	711.7836303710938	685.3706665039063	1072.078735351563	789.7333374023438	393.259765625	1103.804565429688	707.1535034179688	99.10745239257813	1406.807739257813	726.2411499023438	107.7472763061523	1324.624755859375	828.760009765625	901.4359741210938	1347.771484375	778.6095581054688	815.2005004882813	1393.00048828125	636.6481323242188	38.24229049682617	1369.074340820313	666.64404296875	59.31919479370117	1410.765502929688	646.7763671875	83.48760223388672	1367.542236328125	734.4926147460938	419.9629821777344	1403.496826171875	776.44482421875	962.4133911132813	1366.817260742188	737.7631225585938	482.2885437011719	1396.553833007813	733.13623046875	458.6448974609375	1280.27783203125	853.6361694335938	53.8757438659668	1331.64404296875	857.9575805664063	64.28647613525391	1379.964599609375	819.6883544921875	46.66120147705078	1441.621459960938	678.7573852539063	927.3358764648438	1270.585327148438	704.9576416015625	178.2448577880859	1414.59716796875	666.2994995117188	178.1328430175781	1374.218994140625	694.489990234375	258.4840087890625	1421.908813476563	658.8115234375	257.7215881347656	1381.64111328125	747.125244140625	570.2012939453125	1410.830932617188	687.5995483398438	572.793212890625	1370.060424804688	750.4976196289063	680.6984252929688	1410.110961914063	693.3237915039063	682.5488891601563	1371.707763671875	779.3812255859375	395.7153930664063	1358.329956054688	
58	0.38	712.0375366210938	92.86517333984375	1051.59716796875	730.4135131835938	106.2435684204102	1133.707641601563	834.965087890625	893.5325317382813	1107.8935546875	788.5031127929688	805.5714721679688	1061.31494140625	638.2276000976563	39.10018920898438	1087.622192382813	668.3746948242188	56.39809799194336	1044.827880859375	649.1221923828125	83.50531768798828	1088.617309570313	743.91259765625	412.9015502929688	1051.7255859375	771.1754760742188	944.30517578125	1078.552856445313	748.7422485351563	475.7651977539063	1059.125244140625	731.9488525390625	452.8352661132813	1171.541015625	855.9450073242188	53.50919723510742	1132.015625	858.1423950195313	65.81147003173828	1084.621337890625	823.426025390625	46.64981079101563	1021.404602050781	679.366455078125	924.091552734375	1177.758666992188	714.1842041015625	171.40576171875	1043.939208984375	673.946044921875	169.4752502441406	1075.361572265625	705.53515625	251.0719451904297	1032.002319335938	667.128173828125	254.1776733398438	1068.5390625	772.04248046875	574.5528564453125	1040.031860351563	705.1865844726563	576.5092163085938	1068.65966796875	773.5146484375	684.8656616210938	1040.061279296875	711.7471313476563	685.3738403320313	1072.088012695313	789.7022094726563	393.2690734863281	1103.801025390625	707.1420288085938	99.1068115234375	1406.808471679688	726.2364501953125	107.74072265625	1324.642456054688	828.7052612304688	901.44140625	1347.773315429688	778.5706787109375	815.1993408203125	1393.019897460938	636.65185546875	38.24233627319336	1369.084350585938	666.64501953125	59.32011032104492	1410.77978515625	646.76953125	83.49101257324219	1367.546875	734.4661865234375	419.9617614746094	1403.506713867188	776.4029541015625	962.4163208007813	1366.81884765625	737.7369995117188	482.2837219238281	1396.559204101563	733.126708984375	458.6419677734375	1280.281127929688	853.6483154296875	53.86668395996094	1331.65185546875	857.9522705078125	64.28828430175781	1379.96484375	819.6937255859375	46.65798568725586	1441.613647460938	678.7000122070313	927.3365478515625	1270.595825195313	704.9578247070313	178.2527618408203	1414.599853515625	666.2918090820313	178.1277008056641	1374.229370117188	694.4854125976563	258.4744262695313	1421.910766601563	658.803466796875	257.722900390625	1381.641967773438	747.1139526367188	570.19970703125	1410.829956054688	687.5699462890625	572.7908935546875	1370.073608398438	750.4619750976563	680.700439453125	1410.107543945313	693.3017578125	682.5445556640625	1371.694213867188	779.369873046875	395.7144775390625	1358.319458007813	
59	0.3866666666666667	712.035400390625	92.85295104980469	1051.596435546875	730.4177856445313	106.2539138793945	1133.718872070313	834.9078369140625	893.5401611328125	1107.887817382813	788.447998046875	805.5850830078125	1061.3017578125	638.2261352539063	39.09918975830078	1087.625	668.366455078125	56.39352798461914	1044.823364257813	649.124267578125	83.50765991210938	1088.611572265625	743.8855590820313	412.9061584472656	1051.720825195313	771.10107421875	944.3075561523438	1078.543579101563	748.70849609375	475.7606811523438	1059.11474609375	731.9533081054688	452.8275756835938	1171.546020507813	855.9500732421875	53.50913238525391	1132.00732421875	858.1585083007813	65.81281280517578	1084.620971679688	823.42919921875	46.64986038208008	1021.4013671875	679.3179931640625	924.0811767578125	1177.758666992188	714.1744995117188	171.4029846191406	1043.936157226563	673.9359130859375	169.4660339355469	1075.369750976563	705.5243530273438	251.0771942138672	1032.006713867188	667.1078491210938	254.1712646484375	1068.553833007813	772.0027465820313	574.5560302734375	1040.034545898438	705.1514892578125	576.5003051757813	1068.671508789063	773.4813232421875	684.8616943359375	1040.07275390625	711.7066650390625	685.3561401367188	1072.098999023438	789.6942749023438	393.2687072753906	1103.7998046875	707.1419677734375	99.10793304443359	1406.812866210938	726.2467041015625	107.7341079711914	1324.649291992188	828.66552734375	901.4441528320313	1347.763793945313	778.542236328125	815.2025146484375	1393.004516601563	636.6580200195313	38.23629760742188	1369.077514648438	666.6456298828125	59.30652236938477	1410.766845703125	646.7780151367188	83.48453521728516	1367.549926757813	734.4500122070313	419.9593811035156	1403.502685546875	776.350830078125	962.42236328125	1366.836059570313	737.7232055664063	482.27392578125	1396.551513671875	733.092529296875	458.6424865722656	1280.277709960938	853.6519165039063	53.87350845336914	1331.651977539063	857.9673461914063	64.28060150146484	1379.966186523438	819.6918334960938	46.65353393554688	1441.617797851563	678.661376953125	927.3287353515625	1270.58642578125	704.955322265625	178.2490692138672	1414.60302734375	666.292236328125	178.1200714111328	1374.22998046875	694.4806518554688	258.4823608398438	1421.913940429688	658.801025390625	257.7183532714844	1381.640869140625	747.0869750976563	570.1973876953125	1410.833251953125	687.555419921875	572.7840576171875	1370.064575195313	750.4335327148438	680.7027587890625	1410.102661132813	693.2705688476563	682.5379638671875	1371.688720703125	779.3506469726563	395.71240234375	1358.321166992188	
60	0.3933333333333334	712.0411376953125	92.85028839111328	1051.604248046875	730.4069213867188	106.2382965087891	1133.71240234375	834.8464965820313	893.5400390625	1107.8876953125	788.406494140625	805.5817260742188	1061.31494140625	638.2233276367188	39.08799362182617	1087.625610351563	668.3607177734375	56.39155197143555	1044.82421875	649.1204223632813	83.50198364257813	1088.610473632813	743.8604736328125	412.9025573730469	1051.724243164063	771.0364379882813	944.3128051757813	1078.545166015625	748.6929931640625	475.7527465820313	1059.123291015625	731.9187622070313	452.8156127929688	1171.55419921875	855.9561157226563	53.51178359985352	1132.005126953125	858.1597900390625	65.817626953125	1084.634155273438	823.4359741210938	46.64506530761719	1021.408142089844	679.2677612304688	924.0777587890625	1177.777099609375	714.166748046875	171.4069061279297	1043.9384765625	673.7684936523438	169.653076171875	1075.360717773438	705.5079956054688	251.0731658935547	1032.009887695313	667.0934448242188	254.1643829345703	1068.559936523438	771.9755249023438	574.5494384765625	1040.030029296875	705.126220703125	576.48291015625	1068.67626953125	773.4444580078125	684.8624267578125	1040.071166992188	711.6696166992188	685.3435668945313	1072.104858398438	789.6762084960938	393.26220703125	1103.800048828125	706.8978881835938	98.69904327392578	1406.64453125	726.2521362304688	107.7311935424805	1324.659790039063	828.6287841796875	901.444580078125	1347.761596679688	778.498046875	815.2042236328125	1393.008056640625	636.6488037109375	38.23658752441406	1369.078002929688	666.6453247070313	59.30895614624023	1410.76708984375	646.7747802734375	83.48081207275391	1367.548950195313	734.4331665039063	419.957275390625	1403.50390625	776.30859375	962.4234619140625	1366.847900390625	737.6891479492188	482.275634765625	1396.55615234375	733.08154296875	458.6347351074219	1280.281616210938	853.6400146484375	53.87471389770508	1331.649291992188	857.9659423828125	64.28676605224609	1379.966674804688	819.6874389648438	46.65468597412109	1441.616088867188	678.60791015625	927.3245239257813	1270.599609375	704.9466552734375	178.2441558837891	1414.605590820313	666.2855224609375	178.1168518066406	1374.237548828125	694.4675903320313	258.4723205566406	1421.914794921875	658.785400390625	257.7134094238281	1381.650634765625	747.0658569335938	570.205322265625	1410.834716796875	687.528564453125	572.7806396484375	1370.067626953125	750.4044189453125	680.6951293945313	1410.109008789063	693.2338256835938	682.5285034179688	1371.696899414063	779.3530883789063	395.7233581542969	1358.330078125	
